<svg xmlns="http://www.w3.org/2000/svg" viewBox="0 0 80 80"><defs><style>.cls-1{fill:#FFFFFF;}</style></defs><title>mobile-server</title><g id="Layer_2" data-name="Layer 2"><g id="Layer_1-2" data-name="Layer 1"><path class="cls-1" d="M65,70A10,10,0,0,1,55,80H25a10,10,0,0,1,0-20H55A10,10,0,0,1,65,70Z"/><path class="cls-1" d="M73,40A10,10,0,0,1,63,50H17a10,10,0,0,1,0-20H63A10,10,0,0,1,73,40Z"/><path class="cls-1" d="M80,10A10,10,0,0,1,70,20H10A10,10,0,0,1,10,0H70A10,10,0,0,1,80,10Z"/></g></g></svg>
