<svg xmlns="http://www.w3.org/2000/svg" viewBox="0 0 140 140"><defs><style>.cls-1{fill:#FFFFFF;}</style></defs><title>Asset 6</title><g id="Layer_2" data-name="Layer 2"><g id="Layer_1-2" data-name="Layer 1"><path class="cls-1" d="M70,0a70,70,0,1,0,70,70A70,70,0,0,0,70,0ZM92.07,111.07A10,10,0,0,1,85,114H55a10,10,0,0,1,0-20H85a10,10,0,0,1,7.07,17.07Zm8-30A10,10,0,0,1,93,84H47a10,10,0,0,1,0-20H93a10,10,0,0,1,7.07,17.07Zm7-30A10,10,0,0,1,100,54H40a10,10,0,0,1,0-20h60a10,10,0,0,1,7.07,17.07Z"/></g></g></svg>